<svg xmlns="http://www.w3.org/2000/svg" viewBox="0 0 79 79.36133"><title>icon-interior</title><g id="Layer_2" data-name="Layer 2"><g id="Services_Open" data-name="Services Open"><path d="M78.90527,37.124V0H.13672V36.57227C.0459,37.66016,0,38.7627,0,39.874V79.36133H79V39.874Q79,38.48829,78.90527,37.124ZM4.13672,4H22.97949A39.7457,39.7457,0,0,0,4.13672,22.28516ZM37.5,75.36133H4.13672V36.74414A35.55032,35.55032,0,0,1,37.5,4.43457Zm37.40527,0H41.5V4.43457a35.5476,35.5476,0,0,1,33.40527,32.833Zm0-52.99121A39.74594,39.74594,0,0,0,56.02148,4H74.90527Z"/></g></g></svg>